<svg xmlns="http://www.w3.org/2000/svg" width="280" height="280" viewBox="0 0 280 280" fill="none">
  <g stroke="currentColor" stroke-width="1.2" fill="none" opacity="1">
    <circle cx="140" cy="140" r="60" />
    <circle cx="140" cy="140" r="40" />
    <circle cx="140" cy="140" r="20" />
    <g>
      <path d="M140 80 L160 120 L200 120 L168 148 L180 188 L140 164 L100 188 L112 148 L80 120 L120 120 Z" />
    </g>
    <g transform="rotate(45 140 140)">
      <path d="M140 80 L160 120 L200 120 L168 148 L180 188 L140 164 L100 188 L112 148 L80 120 L120 120 Z" />
    </g>
    <g transform="translate(0 0)">
      <line x1="0" y1="140" x2="280" y2="140" />
      <line x1="140" y1="0" x2="140" y2="280" />
      <line x1="0" y1="0" x2="280" y2="280" />
      <line x1="280" y1="0" x2="0" y2="280" />
    </g>
  </g>
</svg>
